<svg width="200" height="200" viewBox="0 0 200 200" xmlns="http://www.w3.org/2000/svg">
  <defs>
    <linearGradient id="cloudGradient" x1="0%" y1="0%" x2="100%" y2="100%">
      <stop offset="0%" style="stop-color:rgb(74,144,226);stop-opacity:1" />
      <stop offset="100%" style="stop-color:rgb(0,212,255);stop-opacity:1" />
    </linearGradient>
    <filter id="shadow" x="-20%" y="-20%" width="140%" height="140%">
      <feDropShadow dx="2" dy="2" stdDeviation="3" flood-color="#000000" flood-opacity="0.2"/>
    </filter>
  </defs>

  <!-- Central Cube (Datacenter) -->
  <g transform="translate(100, 100)">
    <path d="M -20 -20 L 20 -20 L 20 20 L -20 20 L -20 -20 Z" fill="#444" filter="url(#shadow)"/>
    <path d="M 20 -20 L 40 -30 L 40 10 L 20 20 L 20 -20 Z" fill="#666" filter="url(#shadow)"/>
    <path d="M -20 20 L 0 30 L 40 10 L 20 20 L -20 20 Z" fill="#888" filter="url(#shadow)"/>
  </g>

  <!-- Interoperability Connections and Cloud Structure -->
  <g stroke-width="6" stroke-linecap="round" filter="url(#shadow)">
    <!-- Arc connecting cube to upper cloud -->
    <path d="M 100 80 Q 80 40, 120 40" fill="none" stroke="url(#cloudGradient)"/>
    <path d="M 100 80 Q 120 40, 80 40" fill="none" stroke="url(#cloudGradient)"/>

    <!-- Arc connecting cube to side cloud -->
    <path d="M 120 100 Q 160 80, 160 120" fill="none" stroke="url(#cloudGradient)"/>
    <path d="M 120 100 Q 160 120, 160 80" fill="none" stroke="url(#cloudGradient)"/>

    <!-- Arc connecting cube to lower cloud -->
    <path d="M 100 120 Q 80 160, 120 160" fill="none" stroke="url(#cloudGradient)"/>
    <path d="M 100 120 Q 120 160, 80 160" fill="none" stroke="url(#cloudGradient)"/>
    
    <!-- Central interlocking paths -->
    <path d="M 80 100 C 90 90, 110 90, 120 100" fill="none" stroke="#FFFFFF"/>
    <path d="M 100 80 C 110 90, 110 110, 100 120" fill="none" stroke="#FFFFFF"/>
  </g>
  
</svg>
